<svg width="124" height="19" viewBox="0 0 124 19" fill="none" xmlns="http://www.w3.org/2000/svg">
<path d="M6.54738 18.75C6.06204 18.75 5.66338 18.6027 5.35138 18.308C5.03938 17.996 4.88338 17.6147 4.88338 17.164V4.06L5.24738 4.632L3.34938 6.036C3.10671 6.22667 2.80338 6.322 2.43938 6.322C2.02338 6.322 1.65938 6.166 1.34738 5.854C1.03538 5.542 0.879375 5.16933 0.879375 4.736C0.879375 4.18133 1.14804 3.73067 1.68538 3.384L5.42938 0.887999C5.60271 0.766666 5.79338 0.68 6.00138 0.627999C6.22671 0.575999 6.43471 0.549999 6.62538 0.549999C7.12804 0.549999 7.52671 0.705999 7.82138 1.018C8.11604 1.31267 8.26338 1.68533 8.26338 2.136V17.164C8.26338 17.6147 8.09871 17.996 7.76938 18.308C7.45738 18.6027 7.05004 18.75 6.54738 18.75ZM17.8228 0.211998C18.7588 0.211998 19.5995 0.411332 20.3448 0.809999C21.1075 1.19133 21.7488 1.72 22.2688 2.396C22.8062 3.072 23.2135 3.83467 23.4908 4.684C23.7855 5.516 23.9328 6.39133 23.9328 7.31C23.9328 7.89933 23.8635 8.61867 23.7248 9.468C23.6035 10.3173 23.3782 11.2187 23.0488 12.172C22.7195 13.108 22.2602 14.0267 21.6708 14.928C21.0815 15.812 20.3275 16.6093 19.4088 17.32C18.5075 18.0307 17.3982 18.568 16.0808 18.932C15.8728 18.984 15.6735 19.01 15.4828 19.01C15.0842 19.01 14.7202 18.906 14.3908 18.698C14.0788 18.4727 13.9228 18.0913 13.9228 17.554C13.9228 17.1553 14.0442 16.8173 14.2868 16.54C14.5468 16.2627 14.8848 16.0633 15.3008 15.942C16.0982 15.6993 16.8695 15.3007 17.6148 14.746C18.3775 14.174 19.0362 13.4893 19.5908 12.692C20.1455 11.8773 20.5182 10.9933 20.7088 10.04L21.4108 10.066C21.1855 10.3433 20.8908 10.6553 20.5268 11.002C20.1802 11.3487 19.7468 11.652 19.2268 11.912C18.7242 12.1547 18.1175 12.276 17.4068 12.276C16.2628 12.276 15.2662 12.0333 14.4168 11.548C13.5848 11.0453 12.9348 10.3433 12.4668 9.442C11.9988 8.52333 11.7648 7.45733 11.7648 6.244C11.7648 5.152 12.0335 4.14667 12.5708 3.228C13.1255 2.30933 13.8622 1.58133 14.7808 1.044C15.6995 0.489332 16.7135 0.211998 17.8228 0.211998ZM17.8228 3.072C17.2682 3.072 16.7655 3.21933 16.3148 3.514C15.8815 3.79133 15.5348 4.17267 15.2748 4.658C15.0148 5.126 14.8848 5.65467 14.8848 6.244C14.8848 6.88533 15.0062 7.44867 15.2488 7.934C15.4915 8.402 15.8295 8.766 16.2628 9.026C16.7135 9.286 17.2335 9.416 17.8228 9.416C18.3775 9.416 18.8715 9.27733 19.3048 9C19.7555 8.72267 20.1108 8.34133 20.3708 7.856C20.6308 7.37067 20.7608 6.83333 20.7608 6.244C20.7608 5.63733 20.6308 5.1 20.3708 4.632C20.1108 4.14667 19.7555 3.76533 19.3048 3.488C18.8715 3.21067 18.3775 3.072 17.8228 3.072ZM33.2242 19.01C31.7335 19.01 30.4682 18.62 29.4282 17.84C28.4055 17.0427 27.6255 15.942 27.0882 14.538C26.5509 13.1167 26.2822 11.4873 26.2822 9.65C26.2822 7.79533 26.5509 6.166 27.0882 4.762C27.6255 3.358 28.4055 2.266 29.4282 1.486C30.4682 0.688666 31.7335 0.289999 33.2242 0.289999C34.7149 0.289999 35.9715 0.688666 36.9942 1.486C38.0342 2.266 38.8229 3.358 39.3602 4.762C39.8975 6.166 40.1662 7.79533 40.1662 9.65C40.1662 11.4873 39.8975 13.1167 39.3602 14.538C38.8229 15.942 38.0342 17.0427 36.9942 17.84C35.9715 18.62 34.7149 19.01 33.2242 19.01ZM33.2242 15.89C33.9522 15.89 34.5762 15.6647 35.0962 15.214C35.6335 14.746 36.0495 14.0527 36.3442 13.134C36.6389 12.198 36.7862 11.0367 36.7862 9.65C36.7862 8.246 36.6389 7.08467 36.3442 6.166C36.0495 5.24733 35.6335 4.56267 35.0962 4.112C34.5762 3.644 33.9522 3.41 33.2242 3.41C32.5135 3.41 31.8895 3.644 31.3522 4.112C30.8149 4.56267 30.3989 5.24733 30.1042 6.166C29.8095 7.08467 29.6622 8.246 29.6622 9.65C29.6622 11.0367 29.8095 12.198 30.1042 13.134C30.3989 14.0527 30.8149 14.746 31.3522 15.214C31.8895 15.6647 32.5135 15.89 33.2242 15.89ZM49.1949 19.01C47.7042 19.01 46.4389 18.62 45.3989 17.84C44.3762 17.0427 43.5962 15.942 43.0589 14.538C42.5216 13.1167 42.2529 11.4873 42.2529 9.65C42.2529 7.79533 42.5216 6.166 43.0589 4.762C43.5962 3.358 44.3762 2.266 45.3989 1.486C46.4389 0.688666 47.7042 0.289999 49.1949 0.289999C50.6856 0.289999 51.9422 0.688666 52.9649 1.486C54.0049 2.266 54.7936 3.358 55.3309 4.762C55.8682 6.166 56.1369 7.79533 56.1369 9.65C56.1369 11.4873 55.8682 13.1167 55.3309 14.538C54.7936 15.942 54.0049 17.0427 52.9649 17.84C51.9422 18.62 50.6856 19.01 49.1949 19.01ZM49.1949 15.89C49.9229 15.89 50.5469 15.6647 51.0669 15.214C51.6042 14.746 52.0202 14.0527 52.3149 13.134C52.6096 12.198 52.7569 11.0367 52.7569 9.65C52.7569 8.246 52.6096 7.08467 52.3149 6.166C52.0202 5.24733 51.6042 4.56267 51.0669 4.112C50.5469 3.644 49.9229 3.41 49.1949 3.41C48.4842 3.41 47.8602 3.644 47.3229 4.112C46.7856 4.56267 46.3696 5.24733 46.0749 6.166C45.7802 7.08467 45.6329 8.246 45.6329 9.65C45.6329 11.0367 45.7802 12.198 46.0749 13.134C46.3696 14.0527 46.7856 14.746 47.3229 15.214C47.8602 15.6647 48.4842 15.89 49.1949 15.89ZM67.3567 12.328C66.906 12.328 66.5247 12.1807 66.2127 11.886C65.918 11.5913 65.7707 11.2187 65.7707 10.768C65.7707 10.3173 65.918 9.95333 66.2127 9.676C66.5247 9.38133 66.906 9.234 67.3567 9.234H71.8807C72.3314 9.234 72.704 9.39 72.9987 9.702C73.3107 9.99667 73.4667 10.3693 73.4667 10.82C73.4667 11.2533 73.3107 11.6173 72.9987 11.912C72.704 12.1893 72.3314 12.328 71.8807 12.328H67.3567ZM92.1024 9.52L92.0504 8.922C92.7091 9.21667 93.2811 9.598 93.7664 10.066C94.2517 10.534 94.6244 11.0453 94.8844 11.6C95.1444 12.1547 95.2744 12.7267 95.2744 13.316C95.2744 14.304 94.9971 15.214 94.4424 16.046C93.9051 16.8607 93.1771 17.5193 92.2584 18.022C91.3397 18.5073 90.3171 18.75 89.1904 18.75C88.0637 18.75 87.0411 18.5073 86.1224 18.022C85.2037 17.5193 84.4671 16.8607 83.9124 16.046C83.3751 15.214 83.1064 14.304 83.1064 13.316C83.1064 12.5187 83.2711 11.834 83.6004 11.262C83.9471 10.6727 84.3717 10.1787 84.8744 9.78C85.3944 9.38133 85.9057 9.052 86.4084 8.792L86.2004 9.52C85.7671 9.34667 85.3424 9.104 84.9264 8.792C84.5277 8.46267 84.1984 8.04667 83.9384 7.544C83.6784 7.04133 83.5484 6.452 83.5484 5.776C83.5484 4.80533 83.7997 3.93 84.3024 3.15C84.8051 2.35267 85.4811 1.72 86.3304 1.252C87.1971 0.783999 88.1504 0.549999 89.1904 0.549999C90.2477 0.549999 91.1924 0.783999 92.0244 1.252C92.8737 1.72 93.5497 2.35267 94.0524 3.15C94.5551 3.93 94.8064 4.80533 94.8064 5.776C94.8064 6.52133 94.6591 7.14533 94.3644 7.648C94.0697 8.15067 93.7144 8.54933 93.2984 8.844C92.8824 9.13867 92.4837 9.364 92.1024 9.52ZM86.6684 5.828C86.6684 6.296 86.7724 6.712 86.9804 7.076C87.2057 7.44 87.5091 7.73467 87.8904 7.96C88.2717 8.168 88.7051 8.272 89.1904 8.272C89.6757 8.272 90.1004 8.168 90.4644 7.96C90.8457 7.73467 91.1404 7.44 91.3484 7.076C91.5737 6.712 91.6864 6.296 91.6864 5.828C91.6864 5.13467 91.4437 4.56267 90.9584 4.112C90.4904 3.644 89.9011 3.41 89.1904 3.41C88.4624 3.41 87.8557 3.644 87.3704 4.112C86.9024 4.56267 86.6684 5.13467 86.6684 5.828ZM89.1904 15.89C90.0224 15.89 90.7244 15.6387 91.2964 15.136C91.8684 14.616 92.1544 13.992 92.1544 13.264C92.1544 12.7613 92.0244 12.3107 91.7644 11.912C91.5044 11.5133 91.1491 11.2013 90.6984 10.976C90.2477 10.7333 89.7451 10.612 89.1904 10.612C88.6357 10.612 88.1331 10.7333 87.6824 10.976C87.2317 11.2013 86.8764 11.5133 86.6164 11.912C86.3564 12.3107 86.2264 12.7613 86.2264 13.264C86.2264 13.992 86.5124 14.616 87.0844 15.136C87.6564 15.6387 88.3584 15.89 89.1904 15.89ZM106.347 9.52L106.295 8.922C106.953 9.21667 107.525 9.598 108.011 10.066C108.496 10.534 108.869 11.0453 109.129 11.6C109.389 12.1547 109.519 12.7267 109.519 13.316C109.519 14.304 109.241 15.214 108.687 16.046C108.149 16.8607 107.421 17.5193 106.503 18.022C105.584 18.5073 104.561 18.75 103.435 18.75C102.308 18.75 101.285 18.5073 100.367 18.022C99.4479 17.5193 98.7112 16.8607 98.1565 16.046C97.6192 15.214 97.3505 14.304 97.3505 13.316C97.3505 12.5187 97.5152 11.834 97.8445 11.262C98.1912 10.6727 98.6159 10.1787 99.1185 9.78C99.6385 9.38133 100.15 9.052 100.653 8.792L100.445 9.52C100.011 9.34667 99.5865 9.104 99.1705 8.792C98.7719 8.46267 98.4425 8.04667 98.1825 7.544C97.9225 7.04133 97.7925 6.452 97.7925 5.776C97.7925 4.80533 98.0439 3.93 98.5465 3.15C99.0492 2.35267 99.7252 1.72 100.575 1.252C101.441 0.783999 102.395 0.549999 103.435 0.549999C104.492 0.549999 105.437 0.783999 106.269 1.252C107.118 1.72 107.794 2.35267 108.297 3.15C108.799 3.93 109.051 4.80533 109.051 5.776C109.051 6.52133 108.903 7.14533 108.609 7.648C108.314 8.15067 107.959 8.54933 107.543 8.844C107.127 9.13867 106.728 9.364 106.347 9.52ZM100.913 5.828C100.913 6.296 101.017 6.712 101.225 7.076C101.45 7.44 101.753 7.73467 102.135 7.96C102.516 8.168 102.949 8.272 103.435 8.272C103.92 8.272 104.345 8.168 104.709 7.96C105.09 7.73467 105.385 7.44 105.593 7.076C105.818 6.712 105.931 6.296 105.931 5.828C105.931 5.13467 105.688 4.56267 105.203 4.112C104.735 3.644 104.145 3.41 103.435 3.41C102.707 3.41 102.1 3.644 101.615 4.112C101.147 4.56267 100.913 5.13467 100.913 5.828ZM103.435 15.89C104.267 15.89 104.969 15.6387 105.541 15.136C106.113 14.616 106.399 13.992 106.399 13.264C106.399 12.7613 106.269 12.3107 106.009 11.912C105.749 11.5133 105.393 11.2013 104.943 10.976C104.492 10.7333 103.989 10.612 103.435 10.612C102.88 10.612 102.377 10.7333 101.927 10.976C101.476 11.2013 101.121 11.5133 100.861 11.912C100.601 12.3107 100.471 12.7613 100.471 13.264C100.471 13.992 100.757 14.616 101.329 15.136C101.901 15.6387 102.603 15.89 103.435 15.89ZM120.591 9.52L120.539 8.922C121.197 9.21667 121.769 9.598 122.255 10.066C122.74 10.534 123.113 11.0453 123.373 11.6C123.633 12.1547 123.763 12.7267 123.763 13.316C123.763 14.304 123.485 15.214 122.931 16.046C122.393 16.8607 121.665 17.5193 120.747 18.022C119.828 18.5073 118.805 18.75 117.679 18.75C116.552 18.75 115.529 18.5073 114.611 18.022C113.692 17.5193 112.955 16.8607 112.401 16.046C111.863 15.214 111.595 14.304 111.595 13.316C111.595 12.5187 111.759 11.834 112.089 11.262C112.435 10.6727 112.86 10.1787 113.363 9.78C113.883 9.38133 114.394 9.052 114.897 8.792L114.689 9.52C114.255 9.34667 113.831 9.104 113.415 8.792C113.016 8.46267 112.687 8.04667 112.427 7.544C112.167 7.04133 112.037 6.452 112.037 5.776C112.037 4.80533 112.288 3.93 112.791 3.15C113.293 2.35267 113.969 1.72 114.819 1.252C115.685 0.783999 116.639 0.549999 117.679 0.549999C118.736 0.549999 119.681 0.783999 120.513 1.252C121.362 1.72 122.038 2.35267 122.541 3.15C123.043 3.93 123.295 4.80533 123.295 5.776C123.295 6.52133 123.147 7.14533 122.853 7.648C122.558 8.15067 122.203 8.54933 121.787 8.844C121.371 9.13867 120.972 9.364 120.591 9.52ZM115.157 5.828C115.157 6.296 115.261 6.712 115.469 7.076C115.694 7.44 115.997 7.73467 116.379 7.96C116.76 8.168 117.193 8.272 117.679 8.272C118.164 8.272 118.589 8.168 118.953 7.96C119.334 7.73467 119.629 7.44 119.837 7.076C120.062 6.712 120.175 6.296 120.175 5.828C120.175 5.13467 119.932 4.56267 119.447 4.112C118.979 3.644 118.389 3.41 117.679 3.41C116.951 3.41 116.344 3.644 115.859 4.112C115.391 4.56267 115.157 5.13467 115.157 5.828ZM117.679 15.89C118.511 15.89 119.213 15.6387 119.785 15.136C120.357 14.616 120.643 13.992 120.643 13.264C120.643 12.7613 120.513 12.3107 120.253 11.912C119.993 11.5133 119.637 11.2013 119.187 10.976C118.736 10.7333 118.233 10.612 117.679 10.612C117.124 10.612 116.621 10.7333 116.171 10.976C115.72 11.2013 115.365 11.5133 115.105 11.912C114.845 12.3107 114.715 12.7613 114.715 13.264C114.715 13.992 115.001 14.616 115.573 15.136C116.145 15.6387 116.847 15.89 117.679 15.89Z" fill="#3BB77E"/>
</svg>
