<svg width="31" height="31" viewBox="0 0 31 31" fill="none" xmlns="http://www.w3.org/2000/svg">
<g clip-path="url(#clip0_6511_8093)">
<g clip-path="url(#clip1_6511_8093)">
<g clip-path="url(#clip2_6511_8093)">
<path d="M4.25 12.2651L3.875 10.2026V8.32764C3.9375 7.89012 4.1 7.01514 4.25 7.01514C4.4 7.01514 5.375 6.64014 6.125 6.45264L7.625 6.26514C8 6.26514 8.1875 6.26514 10.0625 5.89014C10.2096 5.86074 11.1875 5.70264 11.5625 5.70264L11 4.95264L11.75 5.70264L12.5 6.45264L12.6875 7.01514C12.4375 7.07765 11.8625 7.20264 11.5625 7.20264H10.0625L9.3125 7.57764V8.14014C9.3125 8.29014 9.18751 9.57762 9.125 10.2026L8.9375 12.0776L8.1875 12.2651H4.625H4.25Z" fill="#FDC040"/>
<path d="M18.125 7.20267L18.875 6.26517L21.3125 4.57767L24.125 3.45267C25 3.20267 26.975 2.81517 27.875 3.26517C29 3.82767 29.1875 4.01517 30.125 5.70267C30.0625 7.01517 29.825 9.75267 29.375 10.2027L28.4375 11.8902L27.875 12.2652H25.0625H20.9375H19.625V10.9527C19.625 10.7652 19.4375 9.45267 19.4375 9.26517V8.14017L19.25 7.39017L18.875 7.20267H18.125Z" fill="#FDC040"/>
<path d="M22.0374 5.87233C21.7765 6.13322 21.6328 6.48005 21.6328 6.84898C21.6328 7.21787 21.7765 7.5647 22.0373 7.82559L25.23 11.0183C25.4909 11.2792 25.8377 11.4228 26.2066 11.4228C26.5755 11.4228 26.9223 11.2791 27.1831 11.0183C27.444 10.7574 27.5877 10.4106 27.5877 10.0417C27.5877 9.67277 27.444 9.32593 27.1832 9.06504L23.9905 5.87229C23.452 5.33383 22.5757 5.33398 22.0374 5.87233ZM26.5617 9.6866C26.6565 9.7814 26.7088 9.90755 26.7088 10.0417C26.7088 10.1758 26.6565 10.3019 26.5617 10.3968C26.4669 10.4916 26.3407 10.5439 26.2066 10.5439C26.0724 10.5439 25.9463 10.4916 25.8515 10.3968L22.6587 7.20399C22.5639 7.10919 22.5117 6.98304 22.5117 6.8489C22.5117 6.71477 22.5639 6.58869 22.6588 6.49382C22.7567 6.3959 22.8852 6.34697 23.0139 6.34697C23.1424 6.34697 23.2711 6.3959 23.369 6.49382L26.5617 9.6866Z" fill="#3BB77E"/>
<path d="M30.3932 13.9629C30.2094 13.055 29.554 12.3268 28.7156 12.0178C30.7947 8.54917 31.0829 5.30096 29.4197 3.63761C28.69 2.90803 27.6333 2.53449 26.3615 2.55792C26.1188 2.56238 25.9257 2.76272 25.9301 3.00536C25.9345 3.24531 26.1304 3.4368 26.3694 3.4368C26.3721 3.4368 26.3749 3.4368 26.3776 3.43675C27.4181 3.41747 28.2335 3.69439 28.7982 4.25908C29.6714 5.13232 29.695 6.45911 29.561 7.4184C29.3715 8.775 28.7578 10.3049 27.7843 11.8559C25.2496 11.8076 22.704 11.7742 20.1543 11.7559C20.1377 10.2591 20.0451 8.74414 19.8768 7.24541C19.8538 7.04081 19.6918 6.87956 19.487 6.85751C19.356 6.84345 19.2247 6.83092 19.0936 6.81791C20.9488 5.2491 22.9322 4.14406 24.7579 3.673C24.993 3.61236 25.1343 3.3727 25.0736 3.13767C25.013 2.90265 24.7732 2.76125 24.5383 2.82196C23.8387 3.00249 23.1191 3.26875 22.3938 3.61195C22.535 2.99769 22.6024 2.26131 22.3327 1.71186C22.1703 1.38073 21.9013 1.15496 21.555 1.05892C21.0419 0.91677 20.2448 0.991421 19.3592 2.15484C19.3164 2.21115 19.275 2.26788 19.2351 2.3243C19.2304 2.3076 19.2255 2.29096 19.2204 2.27426C19.0464 1.69522 18.5915 0.723755 17.4987 0.723755C17.1191 0.723755 16.7882 0.87505 16.5416 1.16123C16.2196 1.5349 16.0787 2.11529 16.0282 2.69375C15.6436 2.18795 15.1777 1.78141 14.6738 1.78141C14.3464 1.78141 14.0478 1.94818 13.8332 2.251C13.2677 3.04872 13.2595 4.77754 13.7848 6.58886C13.6532 6.59051 13.5218 6.59347 13.3903 6.59625C12.5293 5.59155 11.4885 4.90012 11.0332 4.62345V3.66011C11.2395 3.62396 11.3964 3.44436 11.3964 3.22768V1.98691C11.3964 1.31821 10.8524 0.774206 10.1837 0.774206H7.45093C6.78223 0.774206 6.23821 1.31821 6.23821 1.98691V3.22768C6.23821 3.44436 6.39519 3.62396 6.60151 3.66011L6.60118 4.62326C6.00781 4.98364 4.4228 6.04579 3.53571 7.58809C3.35477 7.90136 3.27098 8.26241 3.29366 8.63303C3.3362 9.30847 3.44184 10.6216 3.67148 11.8478C3.49154 11.8511 3.31141 11.8541 3.13158 11.8576C1.91091 11.8806 0.849034 12.7661 0.606799 13.9627C0.46441 14.6638 0.46441 15.3748 0.60674 16.0755C0.78452 16.9551 1.40757 17.681 2.23049 18.0014C2.27878 18.896 2.36145 20.1682 2.49681 21.6141C2.13404 22.6416 1.77872 23.6694 1.43406 24.6952C1.1375 25.5787 1.53455 26.5593 2.35817 26.9764C2.67154 27.1346 3.00103 27.2573 3.33825 27.3426C3.65343 28.2364 4.21596 29.0075 4.97818 29.5838C5.81983 30.2201 6.82276 30.5565 7.87854 30.5565H23.1215C24.1773 30.5565 25.1802 30.2201 26.0219 29.5838C26.7842 29.0074 27.3467 28.2363 27.6619 27.3424C28.0007 27.2563 28.3301 27.1335 28.6421 26.9758C29.4659 26.5595 29.863 25.5788 29.566 24.6946C29.221 23.6682 28.8658 22.6404 28.5033 21.6137C28.6386 20.1679 28.7213 18.8957 28.7696 18.0012C29.5934 17.6799 30.2157 16.9545 30.3932 16.0759C30.5356 15.3747 30.5356 14.6637 30.3932 13.9629ZM19.0412 7.69515C19.1819 9.04462 19.26 10.4052 19.2754 11.7507C16.0157 11.7318 12.7507 11.7372 9.49426 11.7673C9.50922 10.4165 9.58745 9.05036 9.7286 7.69507C12.8201 7.38664 15.9495 7.38664 19.0412 7.69515ZM14.5502 2.75926C14.5822 2.71414 14.6296 2.66035 14.6738 2.66035C14.9901 2.66035 15.6538 3.56308 16.1258 4.63526C16.2035 4.82524 16.4037 4.93691 16.6076 4.90159C16.8182 4.86502 16.972 4.68232 16.972 4.46857C16.972 4.44184 16.9694 4.41506 16.9645 4.3887C16.7448 2.9037 16.989 1.98837 17.2075 1.73494C17.2874 1.64219 17.3745 1.60263 17.4987 1.60263C18.5119 1.60263 18.5457 3.61845 18.5458 3.63826C18.5458 3.84598 18.6913 4.02517 18.8945 4.06806C19.0981 4.11101 19.3034 4.0056 19.3874 3.81557C19.7016 3.10486 20.5865 1.70278 21.32 1.90599C21.4245 1.93493 21.4913 1.99271 21.5435 2.09912C21.7304 2.48011 21.6304 3.32278 21.303 4.18378C20.1407 4.85194 18.9815 5.70664 17.8823 6.71374C16.8246 6.63619 15.7638 6.59389 14.7028 6.58687C14.0905 4.66714 14.2339 3.20553 14.5502 2.75926ZM10.1543 4.4361H7.48021L7.48051 3.66714H10.1544L10.1543 4.4361ZM7.45093 1.65309H10.1837C10.3678 1.65309 10.5175 1.8028 10.5175 1.98685V2.78803H7.11718V1.98691C7.11718 1.80286 7.26688 1.65309 7.45093 1.65309ZM4.538 11.7C4.31517 10.5166 4.21232 9.23587 4.17089 8.57861C4.15888 8.38159 4.20242 8.19109 4.29721 8.02699C5.13545 6.56959 6.75549 5.55229 7.15805 5.31499H10.4763C10.7332 5.46615 11.4869 5.93546 12.2167 6.63484C11.2363 6.67927 10.2577 6.75285 9.28299 6.85759C9.0782 6.87956 8.91616 7.04081 8.89321 7.24549C8.72416 8.75115 8.6315 10.273 8.61552 11.7762C7.26616 11.7905 5.91841 11.8087 4.57351 11.8315C4.55908 11.7886 4.54655 11.7449 4.538 11.7ZM3.12068 18.1805C3.12437 18.1806 3.128 18.1809 3.1317 18.181L3.14576 18.1812C3.34282 18.1849 3.53988 18.1881 3.73699 18.1917C3.56085 18.6651 3.38594 19.1391 3.21309 19.6138C3.17435 19.0784 3.14412 18.5954 3.12068 18.1805ZM23.1215 29.6775H7.8785C6.32656 29.6775 4.92129 28.746 4.2908 27.3563C4.86811 27.2123 5.36877 26.7968 5.59858 26.2107C5.85185 25.5651 6.08195 24.9704 6.30208 24.3926C6.38851 24.1658 6.27474 23.9119 6.0479 23.8254C5.82106 23.7391 5.56719 23.8528 5.48075 24.0796C5.2616 24.6548 5.03247 25.2468 4.78029 25.8898C4.59819 26.3543 4.10175 26.6204 3.62443 26.5083C3.32454 26.4383 3.03173 26.3319 2.75469 26.192C2.31809 25.9709 2.10855 25.4476 2.26723 24.975C3.39397 21.622 4.62301 18.2453 5.92018 14.9388C6.10258 14.4742 6.59934 14.2079 7.07536 14.3194C7.37821 14.3905 7.67105 14.4971 7.9463 14.6366C8.38299 14.8572 8.59235 15.3802 8.43335 15.8534C7.69595 18.0475 6.911 20.263 6.10017 22.4384C6.01539 22.6658 6.13104 22.9189 6.35847 23.0037C6.58591 23.0885 6.83896 22.9728 6.92375 22.7454C7.47627 21.2628 8.01643 19.7618 8.53827 18.2615C10.8491 18.2866 13.1743 18.2995 15.5 18.2995C17.8258 18.2995 20.1513 18.2866 22.4622 18.2615C23.39 20.9289 24.3746 23.594 25.4013 26.2103C25.6312 26.7964 26.1319 27.2119 26.7093 27.3559C26.0789 28.7458 24.6734 29.6775 23.1215 29.6775ZM28.2456 26.1913C27.9692 26.3309 27.6763 26.4376 27.3749 26.5082C26.8987 26.6198 26.4019 26.3537 26.2196 25.8892C24.9251 22.5902 23.696 19.2135 22.5666 15.8529C22.4076 15.3799 22.6171 14.8568 23.0538 14.6361C23.33 14.4965 23.623 14.3898 23.9244 14.3192C23.9975 14.3021 24.071 14.2938 24.1438 14.2938C24.5457 14.2938 24.9254 14.5449 25.0798 14.9382C26.3742 18.2372 27.6032 21.6138 28.7327 24.9745C28.8916 25.4475 28.6822 25.9706 28.2456 26.1913ZM27.2633 18.1917C27.4601 18.1881 27.6569 18.1849 27.8537 18.1812L27.8694 18.1809C27.8727 18.1809 27.8761 18.1805 27.8794 18.1805C27.8559 18.5952 27.8256 19.0781 27.787 19.6132C27.6141 19.1386 27.4393 18.6648 27.2633 18.1917ZM29.5317 15.9014C29.3988 16.5589 28.892 17.0884 28.238 17.2507C28.1147 17.2821 27.9844 17.2994 27.8519 17.3022L27.8373 17.3025C27.5369 17.3081 27.2366 17.3133 26.9362 17.3184C26.5952 16.4136 26.2492 15.5124 25.8979 14.6171C25.5573 13.7488 24.6223 13.2528 23.7239 13.4634C23.3546 13.55 22.9956 13.6806 22.6572 13.8517C21.8335 14.268 21.4363 15.2487 21.7334 16.1329C21.8736 16.5503 22.0155 16.9679 22.1587 17.3856C17.7364 17.4315 13.2631 17.4315 8.84075 17.3856C8.98408 16.9678 9.12635 16.5502 9.26634 16.1335C9.56371 15.249 9.16647 14.2683 8.34294 13.8523C8.00589 13.6815 7.64698 13.5508 7.27595 13.4637C6.37749 13.2533 5.44284 13.7493 5.10185 14.6177C4.75047 15.5133 4.40458 16.4144 4.06384 17.3185C3.76324 17.3134 3.46259 17.3081 3.16199 17.3025L3.14904 17.3023C3.01538 17.2995 2.88518 17.2821 2.75932 17.2501C2.10785 17.0884 1.601 16.559 1.46804 15.901C1.34927 15.316 1.34927 14.7227 1.4681 14.1373C1.62936 13.3409 2.33591 12.7517 3.14822 12.7364C11.3442 12.5791 19.6556 12.5791 27.8517 12.7364C28.6639 12.7517 29.3704 13.3409 29.5317 14.1376C29.6506 14.7226 29.6506 15.3159 29.5317 15.9014Z" fill="#3BB77E"/>
<path d="M9.69058 19.804H9.66092C8.65445 19.8064 7.84228 20.6008 7.8119 21.6125C7.77624 22.804 7.77624 24.0124 7.8119 25.2039C7.84228 26.2156 8.65442 27.01 9.66125 27.0124H9.69058C10.697 27.01 11.5092 26.2156 11.5396 25.2039C11.5753 24.0124 11.5753 22.804 11.5396 21.6125C11.5091 20.6007 10.697 19.8064 9.69058 19.804ZM10.661 25.1776C10.6452 25.7034 10.2089 26.1322 9.68882 26.1334H9.66302C9.14252 26.1322 8.7062 25.7033 8.69045 25.1776C8.65524 24.0035 8.65524 22.8129 8.69045 21.6388C8.7062 21.1129 9.14252 20.6842 9.66332 20.6829H9.6881C10.2086 20.6842 10.6452 21.1129 10.661 21.6388C10.6962 22.8129 10.6962 24.0035 10.661 25.1776Z" fill="#3BB77E"/>
<path d="M15.5148 19.804H15.4851C14.4787 19.8064 13.6665 20.6008 13.6361 21.6125C13.6005 22.804 13.6005 24.0124 13.6361 25.2039C13.6665 26.2156 14.4786 27.01 15.4855 27.0124H15.5148C16.5213 27.01 17.3334 26.2156 17.3638 25.2039C17.3994 24.0124 17.3994 22.804 17.3638 21.6125C17.3334 20.6008 16.5213 19.8064 15.5148 19.804ZM16.4852 25.1776C16.4694 25.7034 16.0332 26.1322 15.5131 26.1334H15.4873C14.9668 26.1322 14.5305 25.7033 14.5147 25.1776C14.4795 24.0035 14.4795 22.8129 14.5147 21.6388C14.5305 21.1129 14.9668 20.6842 15.4876 20.6829H15.5124C16.0329 20.6842 16.4694 21.1129 16.4852 21.6388C16.5204 22.8129 16.5204 24.0035 16.4852 25.1776Z" fill="#3BB77E"/>
<path d="M21.3389 19.804H21.3093C20.3028 19.8064 19.4907 20.6008 19.4604 21.6125C19.4247 22.804 19.4247 24.0124 19.4604 25.2039C19.4907 26.2156 20.3028 27.01 21.3097 27.0124H21.339C22.3455 27.01 23.1576 26.2156 23.188 25.2039C23.2237 24.0124 23.2237 22.804 23.188 21.6125C23.1576 20.6008 22.3455 19.8064 21.3389 19.804ZM22.3094 25.1776C22.2936 25.7034 21.8574 26.1322 21.3372 26.1334H21.3115C20.791 26.1322 20.3547 25.7033 20.339 25.1776C20.3037 24.0035 20.3037 22.8129 20.339 21.6388C20.3547 21.1129 20.791 20.6842 21.3118 20.6829H21.3366C21.8571 20.6842 22.2937 21.1129 22.3095 21.6388C22.3446 22.8129 22.3446 24.0035 22.3094 25.1776Z" fill="#3BB77E"/>
</g>
</g>
</g>
<defs>
<clipPath id="clip0_6511_8093">
<rect width="30" height="30" fill="white" transform="translate(0.5 0.640137)"/>
</clipPath>
<clipPath id="clip1_6511_8093">
<rect width="30" height="30" fill="white" transform="translate(0.5 0.640137)"/>
</clipPath>
<clipPath id="clip2_6511_8093">
<rect width="30" height="30" fill="white" transform="translate(0.5 0.640137)"/>
</clipPath>
</defs>
</svg>
