<svg width="216" height="67" viewBox="0 0 216 67" fill="none" xmlns="http://www.w3.org/2000/svg">
<g clip-path="url(#clip0_6511_1893)">
<g clip-path="url(#clip1_6511_1893)">
<g clip-path="url(#clip2_6511_1893)">
<mask id="mask0_6511_1893" style="mask-type:luminance" maskUnits="userSpaceOnUse" x="0" y="6" width="79" height="61">
<path d="M78.5001 6.91992H0.5V66.9199H78.5001V6.91992Z" fill="white"/>
</mask>
<g mask="url(#mask0_6511_1893)">
<path opacity="0.8" d="M58.9465 46.8604C66.373 47.6296 73.2872 39.624 74.3897 28.9793C75.4922 18.3346 70.3656 9.08184 62.9391 8.31265C55.5126 7.54347 48.5984 15.5491 47.4959 26.1938C46.3934 36.8385 51.52 46.0913 58.9465 46.8604Z" fill="#FDC040"/>
<path d="M47.8154 51.9631C54.8811 49.5507 57.806 39.385 54.3482 29.2574C50.8904 19.1298 42.3594 12.8754 35.2937 15.2877C28.2279 17.7001 25.3031 27.8658 28.7608 37.9934C32.2186 48.121 40.7496 54.3755 47.8154 51.9631Z" fill="#FDC040"/>
<path d="M27.5 39.9199H75.5709C75.9546 40.0866 76.837 40.7199 77.2973 41.9199C77.8728 43.4199 79.5 65.4199 52 60.9199C30.3624 60.9199 25.3134 60.2532 25.5052 59.9199C29.5 58.9199 30 54.9199 30.5 51.9199C31 48.9199 27.5 39.9199 27.5 39.9199Z" fill="#81B13D"/>
<path d="M63.6153 19.3521C62.9841 19.3521 62.4727 19.8636 62.4727 20.4946V20.6772C62.4727 21.3084 62.9841 21.8197 63.6153 21.8197C64.2465 21.8197 64.7579 21.3084 64.7579 20.6772V20.4946C64.7579 19.8634 64.2465 19.3521 63.6153 19.3521Z" fill="#253D4E"/>
<path d="M66.584 24.4497C65.9529 24.4497 65.4414 24.9611 65.4414 25.5922V25.7747C65.4414 26.4058 65.9529 26.9173 66.584 26.9173C67.2152 26.9173 67.7266 26.4059 67.7266 25.7747V25.5922C67.7266 24.9611 67.2152 24.4497 66.584 24.4497Z" fill="#253D4E"/>
<path d="M41.5684 23.3767L41.4838 23.2148C41.1918 22.6552 40.5012 22.4384 39.9423 22.7306C39.3828 23.0227 39.1661 23.7128 39.4581 24.2722L39.5427 24.4341C39.7463 24.8247 40.1444 25.0484 40.5564 25.0484C40.7346 25.0484 40.9153 25.0066 41.0842 24.9183C41.6436 24.6262 41.8604 23.9361 41.5684 23.3767Z" fill="#253D4E"/>
<path d="M46.5566 26.5217L46.472 26.3598C46.18 25.8002 45.4896 25.5834 44.9305 25.8756C44.371 26.1677 44.1543 26.8578 44.4463 27.4172L44.5309 27.5792C44.7345 27.9698 45.1325 28.1934 45.5446 28.1934C45.7228 28.1934 45.9035 28.1517 46.0724 28.0633C46.6318 27.7713 46.8486 27.0811 46.5566 26.5217Z" fill="#253D4E"/>
<path d="M39.4467 49.2539L36.0482 45.8552C35.6019 45.409 34.8784 45.4089 34.4325 45.8551C33.9861 46.3013 33.9861 47.0248 34.4323 47.4708L37.8308 50.8695C38.054 51.0927 38.3462 51.2042 38.6387 51.2042C38.931 51.2042 39.2235 51.0927 39.4466 50.8697C39.8929 50.4234 39.8929 49.7 39.4467 49.2539Z" fill="#253D4E"/>
<path d="M49.5436 47.1247C49.1778 46.6107 48.4646 46.4903 47.9502 46.8565L36.0894 55.3007C35.5754 55.6666 35.4553 56.3801 35.8213 56.8941C36.0441 57.2073 36.3957 57.3741 36.753 57.3741C36.9821 57.3741 37.2137 57.3053 37.4146 57.1622L49.2754 48.718C49.7894 48.3521 49.9095 47.6387 49.5436 47.1247Z" fill="#253D4E"/>
<path d="M53.7394 48.8477C53.3738 48.3337 52.6604 48.2134 52.146 48.5796L47.5932 51.8209C47.0791 52.1871 46.9592 52.9004 47.3251 53.4144C47.548 53.7276 47.8997 53.8945 48.2569 53.8945C48.4861 53.8945 48.7174 53.8256 48.9185 53.6824L53.4714 50.4411C53.9855 50.0752 54.1053 49.3618 53.7394 48.8477Z" fill="#253D4E"/>
<path d="M78.2842 43.6639C77.9149 43.152 77.201 43.0365 76.689 43.4053L76.3084 43.6797C76.31 43.5817 76.3122 43.4839 76.3122 43.3857C76.3122 42.2957 75.8881 41.2701 75.1157 40.4956C74.3435 39.7253 73.3178 39.3012 72.2279 39.3012H71.8897C73.1436 36.8784 73.7803 33.961 73.7803 30.5931C73.7803 23.9882 71.3044 16.7686 67.4728 12.2006C67.0671 11.717 66.3465 11.6537 65.8631 12.0595C65.3797 12.4651 65.3165 13.1858 65.722 13.6692C69.2291 17.8501 71.4953 24.4933 71.4953 30.5931C71.4953 34.1085 70.7396 37.0344 69.2493 39.3012H66.9871L67.9922 38.5856C68.5064 38.2197 68.6263 37.5062 68.2604 36.9922C67.8946 36.4782 67.1815 36.3579 66.667 36.7241L63.0473 39.3012H56.2509C56.9358 35.8318 56.2224 31.9559 54.1525 27.991C52.6708 25.1537 50.5665 22.4083 48.1459 20.0823C50.6391 13.776 54.7652 9.74171 58.7856 9.74171C59.9998 9.74171 61.2234 10.095 62.4222 10.7921C62.9678 11.109 63.6672 10.9239 63.9844 10.3785C64.3014 9.83296 64.1163 9.13355 63.5708 8.81637C62.0185 7.91403 60.4085 7.45654 58.7856 7.45654C53.9217 7.45654 49.2447 11.636 46.3366 18.4717C45.3461 17.6567 44.3196 16.9156 43.2739 16.2699C38.3518 13.23 33.6909 12.574 30.1503 14.4224C26.8845 16.1291 24.7927 19.9135 24.2598 25.0784C24.1949 25.7061 24.6513 26.2675 25.2789 26.3321C25.9081 26.3979 26.4681 25.9404 26.5326 25.3129C26.9843 20.9359 28.6448 17.7875 31.208 16.4478C37.4487 13.1898 47.7551 20.6775 52.1268 29.0487C54.0712 32.7732 54.6694 36.2174 53.9124 39.3013H41.1019C41.0987 39.3013 41.0957 39.3013 41.0925 39.3013H35.2376L33.32 37.3838C32.8736 36.9377 32.1503 36.9377 31.7041 37.3838C31.2579 37.8301 31.2579 38.5535 31.7041 38.9997L32.0056 39.3012H28.8688C27.5961 36.4086 26.7594 33.087 26.5 29.8648C26.4494 29.2359 25.8991 28.7656 25.2695 28.8176C24.6405 28.8682 24.1717 29.419 24.2223 30.0481C24.433 32.6666 24.9735 35.2721 25.8077 37.7311C22.5512 34.9561 18.2976 33.4648 13.9181 33.7027C13.5099 33.7249 13.1445 33.9636 12.9604 34.3285C11.2421 37.7308 10.759 41.5711 11.4716 45.2079C11.4783 45.3182 11.5001 45.4241 11.5358 45.5235C11.7597 46.5612 12.0827 47.5802 12.5019 48.5663C7.61142 49.3248 3.26853 52.2074 0.665419 56.5013C0.453507 56.8508 0.444671 57.287 0.641958 57.6451C2.48304 60.9864 5.38506 63.5535 8.79438 65.0162C8.88533 65.0695 8.98024 65.1099 9.07789 65.1358C10.9607 65.9034 12.991 66.3372 15.0789 66.3803C15.1933 66.3827 15.3065 66.3838 15.4206 66.3838C16.2333 66.3838 17.0385 66.3224 17.8317 66.2071C17.9064 66.2026 17.9806 66.193 18.0526 66.1743C21.4109 65.64 24.5331 64.0979 26.998 61.7808C27.0539 61.7892 27.1106 61.795 27.1688 61.795H32.2958C32.9269 61.795 33.4384 61.2836 33.4384 60.6524C33.4384 60.0213 32.9269 59.5098 32.2958 59.5098H29.0152C29.315 59.1034 29.5991 58.6828 29.8636 58.2464C29.8717 58.233 29.8782 58.219 29.8857 58.2055C29.8925 58.1931 29.9008 58.1819 29.9072 58.1691C32.5685 52.8967 32.2673 46.5732 29.1403 41.5863H34.2907L37.4015 44.6971C37.6246 44.9201 37.9171 45.0316 38.2095 45.0316C38.5018 45.0316 38.7943 44.9201 39.0175 44.6971C39.4637 44.2507 39.4637 43.5274 39.0175 43.0811L37.5227 41.5863H40.624L44.8659 45.8282C45.0891 46.0513 45.3816 46.1628 45.6739 46.1628C45.9663 46.1628 46.2588 46.0513 46.482 45.8282C46.9282 45.3819 46.9282 44.6585 46.482 44.2123L43.8561 41.5865H54.7707L54.7745 41.5868L54.7783 41.5865H59.8379L57.3434 43.3624C56.8292 43.7283 56.7093 44.4417 57.0752 44.9557C57.2981 45.269 57.6497 45.4358 58.007 45.4358C58.2361 45.4358 58.4675 45.3669 58.6686 45.2237L63.7776 41.5863H69.8446L69.8466 41.5865L69.8492 41.5863H72.2287C72.7093 41.5863 73.1619 41.7736 73.5007 42.1113C73.8406 42.4521 74.0278 42.9047 74.0278 43.3855C74.0278 44.0734 73.9843 44.7511 73.9003 45.4166L65.5107 51.4659C64.999 51.835 64.8832 52.5491 65.2522 53.0611C65.4757 53.3708 65.8253 53.5355 66.18 53.5355C66.4115 53.5355 66.6452 53.4653 66.8474 53.3196L73.0835 48.8232C71.8376 52.2902 69.436 55.2104 66.3453 57.1174L53.6032 44.3753C53.1568 43.9292 52.4335 43.9292 51.9872 44.3753C51.541 44.8217 51.541 45.545 51.9872 45.9912L64.2173 58.2213C62.5612 58.9288 60.7634 59.3662 58.8795 59.4792L53.8982 54.4982C53.4522 54.0521 52.7287 54.0519 52.2825 54.4983C51.8363 54.9445 51.8363 55.6679 52.2826 56.1141L55.6782 59.5095H44.4925L42.6593 57.6764C42.213 57.2303 41.4896 57.2303 41.0434 57.6764C40.5972 58.1227 40.5972 58.8461 41.0434 59.2923L41.2606 59.5095H37.0561C36.4249 59.5095 35.9135 60.021 35.9135 60.6521C35.9135 61.2833 36.4249 61.7947 37.0561 61.7947H43.5448L46.1218 64.3718C46.345 64.5948 46.6375 64.7063 46.9299 64.7063C47.2222 64.7063 47.5147 64.5948 47.7379 64.3718C48.1841 63.9254 48.1841 63.2021 47.7379 62.7558L46.7767 61.7947H57.9014C60.7819 61.7947 63.5097 61.1291 65.94 59.9448L66.8998 60.9046C67.123 61.1276 67.4155 61.2391 67.7078 61.2391C68.0002 61.2391 68.2927 61.1276 68.5159 60.9046C68.9621 60.4582 68.9621 59.7349 68.5159 59.2886L67.9985 58.7713C72.118 56.0592 75.0889 51.7397 76.0105 46.712L78.0258 45.2589C78.5374 44.8899 78.6532 44.1759 78.2842 43.6639ZM27.0598 42.5712C27.188 42.7673 27.3092 42.9667 27.4271 43.1677L24.5349 48.9066L21.2325 43.8534L23.5437 38.8478C24.9087 39.8591 26.106 41.1118 27.0598 42.5712ZM23.2837 51.1691L16.9847 51.4863C16.5601 50.9965 16.1651 50.4764 15.8055 49.9261C15.0542 48.7764 14.4809 47.54 14.086 46.2575L20.0107 46.1608L23.2837 51.1691ZM21.5907 37.6261L19.7575 41.5962L16.114 36.021C18.0407 36.1921 19.9009 36.7451 21.5907 37.6261ZM14.2004 37.2698L18.533 43.8994L13.5787 43.9803C13.2652 41.7434 13.469 39.4416 14.2004 37.2698ZM13.6098 50.7276C13.7017 50.878 13.7957 51.0277 13.8925 51.1761C14.4002 51.9529 14.9679 52.6782 15.5859 53.3502C15.631 53.4089 15.6817 53.4628 15.737 53.5117C16.7633 54.5987 17.9242 55.5387 19.1844 56.3123L13.1729 56.1887L10.3387 51.4484C11.3882 51.0859 12.4846 50.842 13.6098 50.7276ZM8.22674 52.369L10.4772 56.1331L3.81545 55.9962C5.04304 54.4968 6.54501 53.2681 8.22674 52.369ZM8.95997 62.5796C6.93608 61.5764 5.15045 60.1096 3.7702 58.2807L11.688 58.4436L8.95997 62.5796ZM17.0787 64.002C16.4347 64.0765 15.7824 64.1087 15.1253 64.0957C13.7522 64.0672 12.4078 63.843 11.1264 63.4455L14.3889 58.499L20.3704 58.622L17.0787 64.002ZM20.1943 63.2883L23.016 58.6765L26.4844 58.7478C26.5557 58.7544 26.6273 58.7591 26.6988 58.7647C24.9794 60.852 22.718 62.4111 20.1943 63.2883ZM26.6179 56.4651C23.9668 56.2053 21.4464 55.2223 19.3297 53.6563L24.7311 53.3842L26.7462 56.4677L26.6179 56.4651ZM28.6656 55.2276L25.9796 51.1175L28.6456 45.8273C29.6774 48.8558 29.6945 52.1705 28.6656 55.2276Z" fill="#253D4E"/>
<path d="M67.0722 45.6227C66.703 45.1108 65.9889 44.9954 65.4772 45.3643L61.4509 48.2676C60.9391 48.6366 60.8234 49.3506 61.1925 49.8626C61.4158 50.1723 61.7655 50.337 62.1201 50.337C62.3518 50.337 62.5854 50.2668 62.7875 50.121L66.8139 47.2178C67.3256 46.8488 67.4414 46.1347 67.0722 45.6227Z" fill="#253D4E"/>
</g>
<path d="M95.5321 61.9202L95.5212 56.8626L93.0142 61.0481H92.382L89.875 56.928V61.9202H88.5234V54.2901H89.6897L92.7199 59.3478L95.6956 54.2901H96.8619L96.8728 61.9202H95.5321ZM104.973 60.1544H101.158L100.405 61.9202H98.9447L102.378 54.2901H103.774L107.218 61.9202H105.736L104.973 60.1544ZM104.504 59.0425L103.065 55.7071L101.637 59.0425H104.504ZM114.271 61.9202L112.712 59.6856C112.646 59.6929 112.548 59.6966 112.418 59.6966H110.695V61.9202H109.278V54.2901H112.418C113.079 54.2901 113.653 54.3991 114.14 54.6171C114.634 54.8351 115.012 55.1477 115.273 55.5546C115.535 55.9615 115.666 56.4447 115.666 57.0042C115.666 57.5783 115.524 58.0725 115.241 58.4867C114.964 58.9009 114.565 59.2097 114.042 59.4132L115.797 61.9202H114.271ZM114.238 57.0042C114.238 56.5173 114.078 56.1431 113.758 55.8815C113.438 55.6199 112.97 55.4892 112.352 55.4892H110.695V58.5303H112.352C112.97 58.5303 113.438 58.3995 113.758 58.1379C114.078 57.869 114.238 57.4911 114.238 57.0042ZM119.782 55.4892H117.254V54.2901H123.728V55.4892H121.199V61.9202H119.782V55.4892ZM135.707 62.0401L134.747 61.1136C134.035 61.724 133.181 62.0292 132.186 62.0292C131.655 62.0292 131.179 61.942 130.758 61.7676C130.336 61.5932 130.006 61.3533 129.766 61.0481C129.526 60.7356 129.406 60.3833 129.406 59.9909C129.406 59.5186 129.544 59.1043 129.821 58.7482C130.097 58.3849 130.547 58.0288 131.172 57.68C130.867 57.3748 130.649 57.0914 130.518 56.8298C130.387 56.5609 130.322 56.2848 130.322 56.0014C130.322 55.4637 130.522 55.0313 130.921 54.7043C131.328 54.37 131.866 54.2029 132.535 54.2029C133.152 54.2029 133.646 54.3556 134.017 54.6608C134.388 54.9587 134.573 55.3656 134.573 55.8815C134.573 56.2739 134.449 56.6228 134.202 56.928C133.963 57.2332 133.567 57.542 133.014 57.8545L134.66 59.424C134.842 59.0679 134.984 58.6393 135.085 58.1379L136.186 58.4976C136.041 59.1734 135.812 59.7547 135.499 60.2416L136.459 61.1572L135.707 62.0401ZM132.535 55.173C132.237 55.173 132.001 55.2494 131.826 55.402C131.652 55.5473 131.565 55.7399 131.565 55.9797C131.565 56.1541 131.612 56.3212 131.706 56.4811C131.801 56.6337 131.982 56.8444 132.251 57.1133C132.687 56.8735 132.989 56.6664 133.156 56.492C133.33 56.3103 133.418 56.1141 133.418 55.9034C133.418 55.6781 133.338 55.5001 133.178 55.3693C133.025 55.2385 132.811 55.173 132.535 55.173ZM132.284 60.9174C132.916 60.9174 133.468 60.7247 133.941 60.3396L131.924 58.4104C131.488 58.6502 131.179 58.8827 130.998 59.108C130.823 59.326 130.736 59.5731 130.736 59.8492C130.736 60.1689 130.878 60.4269 131.161 60.6231C131.445 60.8193 131.819 60.9174 132.284 60.9174ZM148.083 58.018H149.423V61.0591C149.031 61.3716 148.573 61.6114 148.05 61.7785C147.527 61.9455 146.989 62.0292 146.437 62.0292C145.659 62.0292 144.958 61.8621 144.333 61.5278C143.708 61.1863 143.218 60.7176 142.862 60.1217C142.505 59.5258 142.327 58.8537 142.327 58.1052C142.327 57.3567 142.505 56.6845 142.862 56.0886C143.218 55.4927 143.708 55.0278 144.333 54.6935C144.965 54.352 145.674 54.1812 146.459 54.1812C147.098 54.1812 147.679 54.2865 148.203 54.4972C148.726 54.7079 149.165 55.0169 149.521 55.4238L148.628 56.2957C148.046 55.7144 147.345 55.4238 146.524 55.4238C145.986 55.4238 145.507 55.5364 145.085 55.7617C144.671 55.987 144.344 56.303 144.104 56.7099C143.872 57.1168 143.755 57.582 143.755 58.1052C143.755 58.6139 143.872 59.0717 144.104 59.4785C144.344 59.8854 144.671 60.2053 145.085 60.4378C145.507 60.6703 145.983 60.7866 146.513 60.7866C147.109 60.7866 147.632 60.6557 148.083 60.3941V58.018ZM157.374 61.9202L155.816 59.6856C155.75 59.6929 155.652 59.6966 155.521 59.6966H153.799V61.9202H152.382V54.2901H155.521C156.183 54.2901 156.757 54.3991 157.244 54.6171C157.738 54.8351 158.116 55.1477 158.377 55.5546C158.639 55.9615 158.77 56.4447 158.77 57.0042C158.77 57.5783 158.628 58.0725 158.345 58.4867C158.068 58.9009 157.669 59.2097 157.146 59.4132L158.9 61.9202H157.374ZM157.342 57.0042C157.342 56.5173 157.182 56.1431 156.862 55.8815C156.542 55.6199 156.074 55.4892 155.456 55.4892H153.799V58.5303H155.456C156.074 58.5303 156.542 58.3995 156.862 58.1379C157.182 57.869 157.342 57.4911 157.342 57.0042ZM165.009 62.0292C164.232 62.0292 163.531 61.8621 162.906 61.5278C162.281 61.1863 161.79 60.7176 161.434 60.1217C161.078 59.5186 160.9 58.8464 160.9 58.1052C160.9 57.364 161.078 56.6955 161.434 56.0996C161.79 55.4965 162.281 55.0278 162.906 54.6935C163.531 54.352 164.232 54.1812 165.009 54.1812C165.787 54.1812 166.488 54.352 167.113 54.6935C167.738 55.0278 168.228 55.4927 168.585 56.0886C168.941 56.6845 169.119 57.3567 169.119 58.1052C169.119 58.8537 168.941 59.5258 168.585 60.1217C168.228 60.7176 167.738 61.1863 167.113 61.5278C166.488 61.8621 165.787 62.0292 165.009 62.0292ZM165.009 60.7866C165.518 60.7866 165.976 60.674 166.383 60.4487C166.79 60.2162 167.109 59.8964 167.342 59.4895C167.574 59.0753 167.691 58.6139 167.691 58.1052C167.691 57.5965 167.574 57.1387 167.342 56.7318C167.109 56.3176 166.79 55.9979 166.383 55.7726C165.976 55.5401 165.518 55.4238 165.009 55.4238C164.501 55.4238 164.043 55.5401 163.636 55.7726C163.229 55.9979 162.909 56.3176 162.677 56.7318C162.444 57.1387 162.328 57.5965 162.328 58.1052C162.328 58.6139 162.444 59.0753 162.677 59.4895C162.909 59.8964 163.229 60.2162 163.636 60.4487C164.043 60.674 164.501 60.7866 165.009 60.7866ZM175.242 62.0292C174.472 62.0292 173.774 61.8621 173.149 61.5278C172.532 61.1863 172.045 60.7176 171.689 60.1217C171.34 59.5258 171.166 58.8537 171.166 58.1052C171.166 57.3567 171.344 56.6845 171.7 56.0886C172.056 55.4927 172.543 55.0278 173.16 54.6935C173.785 54.352 174.483 54.1812 175.253 54.1812C175.878 54.1812 176.448 54.2902 176.964 54.5082C177.48 54.7262 177.916 55.0423 178.272 55.4565L177.357 56.3176C176.805 55.7217 176.125 55.4238 175.319 55.4238C174.795 55.4238 174.327 55.5401 173.912 55.7726C173.498 55.9979 173.175 56.314 172.942 56.7209C172.71 57.1278 172.594 57.5893 172.594 58.1052C172.594 58.6211 172.71 59.0826 172.942 59.4895C173.175 59.8964 173.498 60.2162 173.912 60.4487C174.327 60.674 174.795 60.7866 175.319 60.7866C176.125 60.7866 176.805 60.485 177.357 59.8819L178.272 60.7538C177.916 61.168 177.477 61.4842 176.954 61.7022C176.438 61.9202 175.867 62.0292 175.242 62.0292ZM186.443 60.7321V61.9202H180.72V54.2901H186.29V55.4783H182.137V57.4621H185.821V58.6283H182.137V60.7321H186.443ZM194.104 61.9202L192.546 59.6856C192.48 59.6929 192.382 59.6966 192.251 59.6966H190.529V61.9202H189.112V54.2901H192.251C192.913 54.2901 193.487 54.3991 193.974 54.6171C194.468 54.8351 194.846 55.1477 195.107 55.5546C195.369 55.9615 195.5 56.4447 195.5 57.0042C195.5 57.5783 195.358 58.0725 195.075 58.4867C194.798 58.9009 194.399 59.2097 193.876 59.4132L195.63 61.9202H194.104ZM194.072 57.0042C194.072 56.5173 193.912 56.1431 193.592 55.8815C193.272 55.6199 192.804 55.4892 192.186 55.4892H190.529V58.5303H192.186C192.804 58.5303 193.272 58.3995 193.592 58.1379C193.912 57.869 194.072 57.4911 194.072 57.0042ZM201.36 59.2279V61.9202H199.943V59.2496L196.946 54.2901H198.461L200.695 58.007L202.952 54.2901H204.347L201.36 59.2279Z" fill="#253D4E"/>
<path d="M118.135 8.06982C119.023 8.06982 119.745 8.36582 120.3 8.95782C120.855 9.54982 121.132 10.2898 121.132 11.1778V43.5343C121.132 44.4963 120.799 45.3103 120.133 45.9763C119.504 46.6053 118.709 46.9198 117.747 46.9198C117.266 46.9198 116.766 46.8458 116.248 46.6978C115.767 46.5128 115.397 46.2723 115.138 45.9763L93.3261 18.2818L94.7691 17.3938V43.8118C94.7691 44.6998 94.4731 45.4398 93.8811 46.0318C93.3261 46.6238 92.5861 46.9198 91.6611 46.9198C90.7731 46.9198 90.0516 46.6238 89.4966 46.0318C88.9416 45.4398 88.6641 44.6998 88.6641 43.8118V11.4553C88.6641 10.4933 88.9786 9.69782 89.6076 9.06882C90.2736 8.40282 91.0876 8.06982 92.0496 8.06982C92.5676 8.06982 93.1041 8.18082 93.6591 8.40282C94.2141 8.58782 94.6211 8.88382 94.8801 9.29082L116.026 36.2638L115.082 36.9298V11.1778C115.082 10.2898 115.36 9.54982 115.915 8.95782C116.47 8.36582 117.21 8.06982 118.135 8.06982ZM142.608 47.4748C139.463 47.4748 136.725 46.8273 134.394 45.5323C132.1 44.2003 130.324 42.4058 129.066 40.1488C127.845 37.8918 127.234 35.3388 127.234 32.4898C127.234 29.1598 127.9 26.3293 129.232 23.9983C130.601 21.6303 132.377 19.8173 134.56 18.5593C136.743 17.3013 139.056 16.6723 141.498 16.6723C143.385 16.6723 145.161 17.0608 146.826 17.8378C148.528 18.6148 150.026 19.6878 151.321 21.0568C152.616 22.3888 153.634 23.9428 154.374 25.7188C155.151 27.4948 155.539 29.3818 155.539 31.3798C155.502 32.2678 155.151 32.9893 154.485 33.5443C153.819 34.0993 153.042 34.3768 152.154 34.3768H130.953L129.288 28.8268H149.656L148.435 29.9368V28.4383C148.361 27.3653 147.973 26.4033 147.27 25.5523C146.604 24.7013 145.753 24.0353 144.717 23.5543C143.718 23.0363 142.645 22.7773 141.498 22.7773C140.388 22.7773 139.352 22.9253 138.39 23.2213C137.428 23.5173 136.595 24.0168 135.892 24.7198C135.189 25.4228 134.634 26.3663 134.227 27.5503C133.82 28.7343 133.617 30.2328 133.617 32.0458C133.617 34.0438 134.024 35.7458 134.838 37.1518C135.689 38.5208 136.762 39.5753 138.057 40.3153C139.389 41.0183 140.795 41.3698 142.275 41.3698C143.644 41.3698 144.735 41.2588 145.549 41.0368C146.363 40.8148 147.011 40.5558 147.492 40.2598C148.01 39.9268 148.472 39.6493 148.879 39.4273C149.545 39.0943 150.174 38.9278 150.766 38.9278C151.58 38.9278 152.246 39.2053 152.764 39.7603C153.319 40.3153 153.597 40.9628 153.597 41.7028C153.597 42.7018 153.079 43.6083 152.043 44.4223C151.081 45.2363 149.73 45.9578 147.991 46.5868C146.252 47.1788 144.458 47.4748 142.608 47.4748ZM159.351 42.3133C158.981 41.7953 158.814 41.1293 158.851 40.3153C158.888 39.5013 159.369 38.7983 160.294 38.2063C160.886 37.8363 161.515 37.6883 162.181 37.7623C162.847 37.7993 163.495 38.1323 164.124 38.7613C165.197 39.8343 166.325 40.6668 167.509 41.2588C168.693 41.8508 170.173 42.1468 171.949 42.1468C172.504 42.1098 173.115 42.0358 173.781 41.9248C174.447 41.7768 175.02 41.4808 175.501 41.0368C176.019 40.5558 176.278 39.8343 176.278 38.8723C176.278 38.0583 176.001 37.4108 175.446 36.9298C174.891 36.4488 174.151 36.0418 173.226 35.7088C172.338 35.3758 171.339 35.0613 170.229 34.7653C169.082 34.4323 167.898 34.0623 166.677 33.6553C165.493 33.2483 164.401 32.7303 163.402 32.1013C162.403 31.4353 161.589 30.5658 160.96 29.4928C160.331 28.4198 160.017 27.0693 160.017 25.4413C160.017 23.5913 160.535 22.0188 161.571 20.7238C162.607 19.4288 163.939 18.4298 165.567 17.7268C167.232 17.0238 168.971 16.6723 170.784 16.6723C171.931 16.6723 173.133 16.8203 174.391 17.1163C175.649 17.3753 176.852 17.8193 177.999 18.4483C179.146 19.0403 180.108 19.8358 180.885 20.8348C181.292 21.3898 181.532 22.0558 181.606 22.8328C181.68 23.6098 181.329 24.3128 180.552 24.9418C179.997 25.3858 179.349 25.5893 178.609 25.5523C177.869 25.4783 177.259 25.2193 176.778 24.7753C176.149 23.9613 175.298 23.3138 174.225 22.8328C173.189 22.3518 171.986 22.1113 170.617 22.1113C170.062 22.1113 169.452 22.1853 168.786 22.3333C168.157 22.4443 167.602 22.7218 167.121 23.1658C166.64 23.5728 166.399 24.2388 166.399 25.1638C166.399 26.0148 166.677 26.6993 167.232 27.2173C167.787 27.6983 168.527 28.1053 169.452 28.4383C170.414 28.7343 171.431 29.0303 172.504 29.3263C173.614 29.6223 174.743 29.9738 175.89 30.3808C177.037 30.7878 178.091 31.3243 179.053 31.9903C180.015 32.6563 180.792 33.5258 181.384 34.5988C181.976 35.6348 182.272 36.9668 182.272 38.5948C182.272 40.4818 181.717 42.0913 180.607 43.4233C179.497 44.7553 178.11 45.7728 176.445 46.4758C174.78 47.1418 173.078 47.4748 171.339 47.4748C169.156 47.4748 166.973 47.1048 164.79 46.3648C162.607 45.5878 160.794 44.2373 159.351 42.3133ZM188.157 17.7823H201.31C202.198 17.7823 202.938 18.0783 203.53 18.6703C204.122 19.2623 204.418 20.0023 204.418 20.8903C204.418 21.7413 204.122 22.4628 203.53 23.0548C202.938 23.6098 202.198 23.8873 201.31 23.8873H188.157C187.269 23.8873 186.529 23.5913 185.937 22.9993C185.345 22.4073 185.049 21.6673 185.049 20.7793C185.049 19.9283 185.345 19.2253 185.937 18.6703C186.529 18.0783 187.269 17.7823 188.157 17.7823ZM194.095 10.8448C195.057 10.8448 195.834 11.1778 196.426 11.8438C197.055 12.4728 197.37 13.2683 197.37 14.2303V38.9278C197.37 39.4458 197.462 39.8713 197.647 40.2043C197.869 40.5373 198.147 40.7778 198.48 40.9258C198.85 41.0738 199.238 41.1478 199.645 41.1478C200.089 41.1478 200.496 41.0738 200.866 40.9258C201.236 40.7408 201.662 40.6483 202.143 40.6483C202.661 40.6483 203.123 40.8888 203.53 41.3698C203.974 41.8508 204.196 42.5168 204.196 43.3678C204.196 44.4038 203.623 45.2548 202.476 45.9208C201.366 46.5868 200.163 46.9198 198.868 46.9198C198.091 46.9198 197.222 46.8643 196.26 46.7533C195.335 46.6053 194.447 46.2908 193.596 45.8098C192.782 45.2918 192.097 44.5148 191.542 43.4788C190.987 42.4428 190.71 41.0183 190.71 39.2053V14.2303C190.71 13.2683 191.024 12.4728 191.653 11.8438C192.319 11.1778 193.133 10.8448 194.095 10.8448Z" fill="#3BB77E"/>
</g>
</g>
</g>
<defs>
<clipPath id="clip0_6511_1893">
<rect width="215" height="66" fill="white" transform="translate(0.5 0.919922)"/>
</clipPath>
<clipPath id="clip1_6511_1893">
<rect width="215" height="66" fill="white" transform="translate(0.5 0.919922)"/>
</clipPath>
<clipPath id="clip2_6511_1893">
<rect width="215" height="66" fill="white" transform="translate(0.5 0.919922)"/>
</clipPath>
</defs>
</svg>
