<svg width="80" height="81" viewBox="0 0 80 81" fill="none" xmlns="http://www.w3.org/2000/svg">
<g clip-path="url(#clip0_6511_10608)">
<g clip-path="url(#clip1_6511_10608)">
<g clip-path="url(#clip2_6511_10608)">
<path d="M10 31.6104L9 26.1104V21.1104C9.16667 19.9437 9.6 17.6104 10 17.6104C10.4 17.6104 13 16.6104 15 16.1104L19 15.6104C20 15.6104 20.5 15.6104 25.5 14.6104C25.8922 14.532 28.5 14.1104 29.5 14.1104L28 12.1104L30 14.1104L32 16.1104L32.5 17.6104C31.8333 17.7771 30.3 18.1104 29.5 18.1104H25.5L23.5 19.1104V20.6104C23.5 21.0104 23.1667 24.4437 23 26.1104L22.5 31.1104L20.5 31.6104H11H10Z" fill="#FDC040"/>
<path d="M47 18.1104L49 15.6104L55.5 11.1104L63 8.11044C65.3333 7.44378 70.6 6.41044 73 7.61044C76 9.11044 76.5 9.61044 79 14.1104C78.8333 17.6104 78.2 24.9104 77 26.1104L74.5 30.6104L73 31.6104H65.5H54.5H51V28.1104C51 27.6104 50.5 24.1104 50.5 23.6104V20.6104L50 18.6104L49 18.1104H47Z" fill="#FDC040"/>
<path d="M57.4382 14.5627C56.7425 15.2584 56.3594 16.1833 56.3594 17.1671C56.3594 18.1508 56.7425 19.0757 57.438 19.7714L65.9519 28.2853C66.6476 28.9809 67.5724 29.3639 68.5561 29.3639C69.5399 29.3639 70.4647 28.9808 71.1602 28.2853C71.8559 27.5896 72.239 26.6647 72.239 25.681C72.239 24.6972 71.8559 23.7723 71.1604 23.0766L62.6465 14.5626C61.2106 13.1267 58.8738 13.1271 57.4382 14.5627ZM69.5031 24.7341C69.756 24.9869 69.8953 25.3233 69.8953 25.681C69.8953 26.0386 69.756 26.3749 69.503 26.6279C69.2502 26.8808 68.9137 27.0201 68.5561 27.0201C68.1984 27.0201 67.8621 26.8808 67.6092 26.6279L59.0952 18.1138C58.8424 17.861 58.703 17.5246 58.703 17.1669C58.703 16.8092 58.8424 16.473 59.0954 16.22C59.3564 15.9589 59.6992 15.8284 60.0423 15.8284C60.3851 15.8284 60.7283 15.9589 60.9892 16.22L69.5031 24.7341Z" fill="#3BB77E"/>
<path d="M79.7151 36.1378C79.2251 33.7169 77.4773 31.7751 75.2416 30.9509C80.7858 21.7013 81.5545 13.0394 77.1191 8.60378C75.1734 6.65824 72.3554 5.66211 68.9639 5.72461C68.3168 5.73649 67.8018 6.27073 67.8137 6.91778C67.8254 7.55765 68.3478 8.06829 68.985 8.06829C68.9923 8.06829 68.9997 8.06829 69.007 8.06814C71.7817 8.01673 73.956 8.75519 75.4618 10.261C77.7905 12.5897 77.8533 16.1278 77.4961 18.6859C76.9908 22.3035 75.3541 26.3832 72.7581 30.5193C65.999 30.3904 59.2107 30.3013 52.4114 30.2526C52.3672 26.2612 52.1203 22.2212 51.6714 18.2246C51.61 17.679 51.1781 17.249 50.6321 17.1902C50.2826 17.1527 49.9326 17.1193 49.5829 17.0846C54.5301 12.9011 59.8192 9.9543 64.6878 8.69816C65.3146 8.53644 65.6914 7.89735 65.5297 7.27061C65.3681 6.64387 64.7286 6.26682 64.1022 6.4287C62.2365 6.91013 60.3176 7.62015 58.3834 8.53534C58.7601 6.89731 58.9396 4.93365 58.2205 3.46844C57.7874 2.58543 57.0702 1.98338 56.1467 1.72728C54.7784 1.3482 52.6528 1.54727 50.2913 4.64973C50.1771 4.79989 50.0666 4.95115 49.9604 5.10162C49.9476 5.05709 49.9346 5.01271 49.9212 4.96818C49.4571 3.42406 48.2439 0.833496 45.3298 0.833496C44.3177 0.833496 43.4353 1.23695 42.7775 2.0001C41.9188 2.99654 41.5432 4.54426 41.4084 6.08681C40.3828 4.73801 39.1405 3.65391 37.7967 3.65391C36.9237 3.65391 36.1275 4.09862 35.5552 4.90615C34.0473 7.03341 34.0254 11.6436 35.4261 16.4738C35.0753 16.4782 34.7247 16.4861 34.374 16.4935C32.078 13.8143 29.3026 11.9705 28.0886 11.2327V8.66378C28.6388 8.56737 29.0571 8.08845 29.0571 7.51062V4.2019C29.0571 2.41871 27.6064 0.968032 25.8232 0.968032H18.5358C16.7526 0.968032 15.3019 2.41871 15.3019 4.2019V7.51062C15.3019 8.08845 15.7205 8.56737 16.2707 8.66378L16.2698 11.2322C14.6875 12.1932 10.4608 15.0256 8.09524 19.1384C7.61272 19.9738 7.38928 20.9366 7.44975 21.9249C7.56319 23.7261 7.84492 27.2278 8.45729 30.4977C7.97743 30.5065 7.49709 30.5145 7.01755 30.5237C3.76242 30.5851 0.930757 32.9463 0.284796 36.1373C-0.0949059 38.0069 -0.0949059 39.9029 0.284639 41.7716C0.75872 44.117 2.42019 46.0527 4.61464 46.9073C4.7434 49.2928 4.96388 52.6854 5.32483 56.5412C4.35745 59.2811 3.40991 62.022 2.49082 64.7573C1.7 67.1135 2.75879 69.7284 4.95512 70.8406C5.79078 71.2624 6.66941 71.5897 7.56866 71.8172C8.40916 74.2006 9.90922 76.2568 11.9418 77.7936C14.1862 79.4905 16.8607 80.3874 19.6761 80.3874H60.3241C63.1395 80.3874 65.8139 79.4905 68.0584 77.7936C70.0911 76.2566 71.5912 74.2003 72.4317 71.8166C73.3352 71.5871 74.2136 71.2594 75.0455 70.8389C77.2423 69.7287 78.3014 67.1135 77.5092 64.7557C76.5893 62.0188 75.6421 59.278 74.6755 56.5401C75.0363 52.6845 75.2568 49.292 75.3856 46.9066C77.5825 46.05 79.2419 44.1154 79.7152 41.7727C80.0948 39.9028 80.0948 38.0068 79.7151 36.1378ZM49.4433 19.4239C49.8184 23.0225 50.0268 26.6507 50.0677 30.2388C41.3752 30.1884 32.6685 30.2026 23.9847 30.2829C24.0246 26.6809 24.2332 23.0378 24.6096 19.4237C32.8537 18.6012 41.1988 18.6012 49.4433 19.4239ZM37.4673 6.26151C37.5526 6.14119 37.679 5.99775 37.7967 5.99775C38.6404 5.99775 40.4102 8.40502 41.6688 11.2642C41.876 11.7708 42.4098 12.0686 42.9536 11.9744C43.5152 11.8769 43.9252 11.3897 43.9252 10.8197C43.9252 10.7484 43.9184 10.677 43.9053 10.6067C43.3195 6.64668 43.9706 4.20581 44.5532 3.53C44.7663 3.28265 44.9986 3.17717 45.3299 3.17717C48.0316 3.17717 48.122 8.55269 48.1222 8.6055C48.1222 9.15943 48.5102 9.63726 49.0521 9.75164C49.5949 9.86617 50.1424 9.58507 50.3663 9.07833C51.2042 7.1831 53.5641 3.44422 55.5201 3.98611C55.7986 4.0633 55.9769 4.21737 56.1159 4.50113C56.6145 5.51711 56.3477 7.76422 55.4747 10.0602C52.3753 11.842 49.2841 14.1212 46.3528 16.8068C43.5323 16.6 40.7036 16.4872 37.8742 16.4685C36.2413 11.3492 36.6238 7.45155 37.4673 6.26151ZM25.7448 10.7331H18.6139L18.6147 8.68253H25.745L25.7448 10.7331ZM18.5358 3.31171H25.8232C26.314 3.31171 26.7133 3.71094 26.7133 4.20174V6.33823H17.6458V4.2019C17.6458 3.7111 18.045 3.31171 18.5358 3.31171ZM10.768 30.1034C10.1738 26.9478 9.89953 23.5325 9.78905 21.7798C9.75702 21.2544 9.87312 20.7464 10.1259 20.3088C12.3612 16.4224 16.6813 13.7096 17.7548 13.0768H26.6036C27.2885 13.4799 29.2985 14.7314 31.2444 16.5964C28.6302 16.7149 26.0204 16.9111 23.4213 17.1904C22.8752 17.249 22.4431 17.679 22.3819 18.2248C21.9311 22.2399 21.684 26.2981 21.6414 30.3066C18.0431 30.3449 14.4491 30.3934 10.8627 30.4541C10.8242 30.3398 10.7908 30.2232 10.768 30.1034ZM6.98848 47.3848C6.99833 47.3851 7.00801 47.386 7.01786 47.3862L7.05536 47.3868C7.58085 47.3966 8.10634 47.4052 8.63198 47.4146C8.16228 48.6772 7.69585 49.9411 7.2349 51.2069C7.13161 49.7792 7.05098 48.4912 6.98848 47.3848ZM60.3239 78.0434H19.676C15.5375 78.0434 11.7901 75.5594 10.1088 71.8536C11.6483 71.4697 12.9834 70.3616 13.5962 68.7987C14.2716 67.0772 14.8852 65.4912 15.4722 63.9504C15.7027 63.3455 15.3993 62.6685 14.7944 62.438C14.1895 62.2077 13.5125 62.511 13.282 63.1158C12.6976 64.6496 12.0866 66.2284 11.4141 67.943C10.9285 69.1817 9.60467 69.8912 8.33181 69.5922C7.5321 69.4057 6.75129 69.1218 6.01251 68.7488C4.84825 68.1593 4.28948 66.7638 4.71262 65.5034C7.71726 56.5621 10.9947 47.5576 14.4538 38.7402C14.9402 37.5013 16.2649 36.7913 17.5343 37.0886C18.3419 37.2781 19.1228 37.5625 19.8568 37.9344C21.0213 38.5226 21.5796 39.9175 21.1556 41.1792C19.1892 47.0301 17.096 52.9381 14.9338 58.7393C14.7077 59.3457 15.0161 60.0205 15.6226 60.2467C16.2291 60.4729 16.9039 60.1643 17.13 59.5579C18.6034 55.6044 20.0438 51.6016 21.4354 47.6009C27.5975 47.6678 33.7981 47.7023 39.9999 47.7023C46.2022 47.7023 52.4034 47.6679 58.566 47.6009C61.04 54.7138 63.6657 61.8208 66.4035 68.7976C67.0165 70.3605 68.3517 71.4686 69.8914 71.8527C68.2104 75.5589 64.4625 78.0434 60.3239 78.0434ZM73.9882 68.747C73.2513 69.1193 72.4701 69.4037 71.6664 69.592C70.3965 69.8897 69.0717 69.1801 68.5855 67.9413C65.1335 59.1441 61.8561 50.1396 58.8443 41.1778C58.4204 39.9165 58.9788 38.5215 60.1434 37.933C60.88 37.5607 61.6613 37.2763 62.4651 37.088C62.6599 37.0424 62.856 37.0203 63.0501 37.0203C64.1219 37.0203 65.1344 37.6899 65.546 38.7387C68.998 47.5359 72.2753 56.5404 75.2871 65.5023C75.711 66.7636 75.1526 68.1585 73.9882 68.747ZM71.3688 47.4146C71.8935 47.4052 72.4184 47.3966 72.9431 47.3868L72.985 47.386C72.9939 47.3859 73.0028 47.3849 73.0117 47.3848C72.9491 48.4907 72.8684 49.7783 72.7653 51.2054C72.3043 49.9397 71.8381 48.6764 71.3688 47.4146ZM77.4178 41.3072C77.0634 43.0607 75.7121 44.4725 73.968 44.9053C73.6392 44.9891 73.2917 45.0353 72.9383 45.0427L72.8994 45.0434C72.0984 45.0584 71.2976 45.0723 70.4966 45.0859C69.5872 42.6732 68.6645 40.2698 67.7278 37.8825C66.8195 35.567 64.3262 34.2444 61.9304 34.806C60.9455 35.0368 59.9884 35.3851 59.086 35.8414C56.8892 36.9516 55.8301 39.5668 56.6224 41.9246C56.9964 43.0376 57.3746 44.1512 57.7566 45.265C45.9637 45.3875 34.035 45.3875 22.242 45.265C22.6242 44.1509 23.0036 43.0373 23.3769 41.9261C24.1699 39.5676 23.1106 36.9522 20.9145 35.8429C20.0157 35.3876 19.0586 35.039 18.0692 34.8067C15.6733 34.2455 13.1809 35.5684 12.2716 37.884C11.3346 40.2723 10.4122 42.6752 9.50358 45.0861C8.70198 45.0725 7.90023 45.0584 7.09864 45.0436L7.06411 45.043C6.70769 45.0355 6.36049 44.9892 6.02485 44.9037C4.2876 44.4726 2.93599 43.0609 2.58144 41.3063C2.26471 39.7461 2.26471 38.164 2.5816 36.6031C3.01162 34.4793 4.89575 32.9081 7.06192 32.8672C28.9179 32.4477 51.0815 32.4477 72.9378 32.8672C75.1037 32.9081 76.9878 34.4793 77.418 36.6039C77.735 38.1638 77.735 39.7459 77.4178 41.3072Z" fill="#3BB77E"/>
<path d="M24.5108 51.7139H24.4317C21.7478 51.7203 19.582 53.8387 19.501 56.5366C19.4059 59.7141 19.4059 62.9364 19.501 66.1138C19.582 68.8116 21.7477 70.93 24.4326 70.9365H24.5108C27.1946 70.93 29.3605 68.8117 29.4414 66.1138C29.5366 62.9364 29.5366 59.7141 29.4414 56.5366C29.3603 53.8385 27.1946 51.7203 24.5108 51.7139ZM27.0985 66.0435C27.0565 67.4458 25.893 68.5892 24.5061 68.5925H24.4373C23.0493 68.5892 21.8858 67.4456 21.8438 66.0435C21.7499 62.9126 21.7499 59.7377 21.8438 56.6068C21.8858 55.2045 23.0493 54.0611 24.4381 54.0578H24.5042C25.8922 54.0611 27.0565 55.2045 27.0985 56.6068C27.1924 59.7377 27.1924 62.9126 27.0985 66.0435Z" fill="#3BB77E"/>
<path d="M40.0381 51.7139H39.9591C37.2752 51.7203 35.1094 53.8387 35.0284 56.5366C34.9333 59.7141 34.9333 62.9364 35.0284 66.1138C35.1094 68.8116 37.2751 70.93 39.96 70.9365H40.0381C42.7221 70.93 44.8878 68.8116 44.9688 66.1138C45.0639 62.9364 45.0639 59.7141 44.9688 56.5366C44.8878 53.8387 42.7221 51.7203 40.0381 51.7139ZM42.6259 66.0435C42.5839 67.4458 41.4205 68.5892 40.0336 68.5925H39.9649C38.5768 68.5892 37.4134 67.4456 37.3713 66.0435C37.2774 62.9126 37.2774 59.7377 37.3713 56.6068C37.4134 55.2045 38.5768 54.0611 39.9656 54.0578H40.0317C41.4197 54.0611 42.5839 55.2045 42.6259 56.6068C42.7198 59.7377 42.7198 62.9126 42.6259 66.0435Z" fill="#3BB77E"/>
<path d="M55.5692 51.7139H55.4903C52.8063 51.7203 50.6406 53.8387 50.5597 56.5366C50.4645 59.7141 50.4645 62.9364 50.5597 66.1138C50.6406 68.8116 52.8063 70.9301 55.4912 70.9365H55.5694C58.2534 70.93 60.4191 68.8116 60.5 66.1138C60.5952 62.9364 60.5952 59.7141 60.5 56.5366C60.4191 53.8387 58.2534 51.7203 55.5692 51.7139ZM58.1571 66.0435C58.1151 67.4458 56.9518 68.5892 55.5647 68.5925H55.4961C54.1081 68.5892 52.9447 67.4456 52.9027 66.0435C52.8086 62.9126 52.8086 59.7377 52.9027 56.6068C52.9447 55.2045 54.1081 54.0611 55.4969 54.0578H55.563C56.951 54.0611 58.1152 55.2045 58.1573 56.6068C58.251 59.7377 58.251 62.9126 58.1571 66.0435Z" fill="#3BB77E"/>
</g>
</g>
</g>
<defs>
<clipPath id="clip0_6511_10608">
<rect y="0.610352" width="80" height="80" rx="10" fill="white"/>
</clipPath>
<clipPath id="clip1_6511_10608">
<rect width="80" height="80" fill="white" transform="translate(0 0.610352)"/>
</clipPath>
<clipPath id="clip2_6511_10608">
<rect width="80" height="80" fill="white" transform="translate(0 0.610352)"/>
</clipPath>
</defs>
</svg>
