<svg width="17" height="17" viewBox="0 0 17 17" fill="none" xmlns="http://www.w3.org/2000/svg">
<g clip-path="url(#clip0_6511_1926)">
<g clip-path="url(#clip1_6511_1926)">
<g clip-path="url(#clip2_6511_1926)">
<mask id="mask0_6511_1926" style="mask-type:luminance" maskUnits="userSpaceOnUse" x="0" y="1" width="16" height="16">
<path d="M15.8713 1.32959H0.8125V16.3884H15.8713V1.32959Z" fill="white"/>
</mask>
<g mask="url(#mask0_6511_1926)">
<path d="M13.9874 9.12503V8.23153C13.9874 6.73385 13.3925 5.29749 12.3334 4.23846C11.2744 3.17944 9.83804 2.58447 8.34035 2.58447C6.84265 2.58447 5.40631 3.17944 4.34728 4.23846C3.28824 5.29749 2.69329 6.73385 2.69329 8.23153V9.12503C2.03519 9.41481 1.49661 9.92186 1.16772 10.5613C0.838822 11.2007 0.739571 11.9338 0.886581 12.6376C1.03359 13.3415 1.41794 13.9735 1.97528 14.4279C2.53262 14.8822 3.22913 15.1313 3.94819 15.1335H5.2031V8.85898H3.94819V8.23153C3.94819 7.06667 4.41094 5.9495 5.23463 5.12581C6.05832 4.30212 7.17547 3.83938 8.34035 3.83938C9.50522 3.83938 10.6224 4.30212 11.4461 5.12581C12.2697 5.9495 12.7325 7.06667 12.7325 8.23153V8.85898H11.4776V13.8786H8.9678V15.1335H12.7325C13.4516 15.1313 14.148 14.8822 14.7054 14.4279C15.2628 13.9735 15.6471 13.3415 15.7942 12.6376C15.9412 11.9338 15.8419 11.2007 15.5129 10.5613C15.1841 9.92186 14.6455 9.41481 13.9874 9.12503ZM3.94819 13.8786C3.44896 13.8786 2.97017 13.6802 2.61717 13.3273C2.26416 12.9743 2.06583 12.4955 2.06583 11.9963C2.06583 11.497 2.26416 11.0182 2.61717 10.6652C2.97017 10.3122 3.44896 10.1139 3.94819 10.1139V13.8786ZM12.7325 13.8786V10.1139C13.2317 10.1139 13.7105 10.3122 14.0635 10.6652C14.4166 11.0182 14.6149 11.497 14.6149 11.9963C14.6149 12.4955 14.4166 12.9743 14.0635 13.3273C13.7105 13.6802 13.2317 13.8786 12.7325 13.8786Z" fill="#3BB77E"/>
</g>
</g>
</g>
</g>
<defs>
<clipPath id="clip0_6511_1926">
<rect width="16" height="16" fill="white" transform="translate(0.5 0.919922)"/>
</clipPath>
<clipPath id="clip1_6511_1926">
<rect width="16" height="16" fill="white" transform="translate(0.5 0.919922)"/>
</clipPath>
<clipPath id="clip2_6511_1926">
<rect width="16" height="16" fill="white" transform="translate(0.5 0.919922)"/>
</clipPath>
</defs>
</svg>
