<svg width="17" height="18" viewBox="0 0 17 18" fill="none" xmlns="http://www.w3.org/2000/svg">
<g clip-path="url(#clip0_6511_1915)">
<g clip-path="url(#clip1_6511_1915)">
<g clip-path="url(#clip2_6511_1915)">
<mask id="mask0_6511_1915" style="mask-type:luminance" maskUnits="userSpaceOnUse" x="0" y="1" width="17" height="17">
<path d="M16.5 1.6709H0.5V17.6709H16.5V1.6709Z" fill="white"/>
</mask>
<g mask="url(#mask0_6511_1915)">
<path d="M8.50078 17.6763L8.03411 17.2763C7.39078 16.7377 1.77344 11.8863 1.77344 8.33768C1.77344 6.55348 2.48222 4.84236 3.74383 3.58074C5.00545 2.31912 6.71658 1.61035 8.50078 1.61035C10.285 1.61035 11.9961 2.31912 13.2578 3.58074C14.5194 4.84236 15.2281 6.55348 15.2281 8.33768C15.2281 11.8863 9.61078 16.7377 8.97011 17.279L8.50078 17.6763ZM8.50078 3.06502C7.10287 3.0666 5.76267 3.62263 4.77419 4.6111C3.78572 5.59957 3.2297 6.93977 3.22811 8.33768C3.22811 10.567 6.68411 14.1283 8.50078 15.7583C10.3174 14.1277 13.7735 10.5644 13.7735 8.33768C13.7719 6.93977 13.2159 5.59957 12.2274 4.6111C11.2389 3.62263 9.89869 3.0666 8.50078 3.06502Z" fill="#3BB77E"/>
<path d="M8.5026 11.0042C7.97518 11.0042 7.45961 10.8478 7.02108 10.5548C6.58255 10.2618 6.24077 9.84532 6.03893 9.35805C5.8371 8.87078 5.78429 8.33461 5.88718 7.81732C5.99008 7.30004 6.24404 6.82489 6.61698 6.45195C6.98992 6.07901 7.46509 5.82503 7.98237 5.72214C8.49965 5.61924 9.03583 5.67205 9.5231 5.87389C10.0104 6.07572 10.4268 6.41751 10.7199 6.85604C11.0129 7.29457 11.1693 7.81015 11.1693 8.33756C11.1693 9.04481 10.8883 9.72309 10.3882 10.2232C9.88812 10.7233 9.20985 11.0042 8.5026 11.0042ZM8.5026 7.00423C8.23889 7.00423 7.98112 7.08243 7.76184 7.22894C7.54259 7.37545 7.37168 7.58369 7.27076 7.82732C7.16985 8.07095 7.14344 8.33904 7.19489 8.59768C7.24633 8.85633 7.37332 9.0939 7.55979 9.28037C7.74626 9.46684 7.98384 9.59383 8.24249 9.64528C8.50113 9.69673 8.76921 9.67032 9.01285 9.5694C9.25648 9.46849 9.46472 9.29759 9.61123 9.07832C9.75774 8.85906 9.83595 8.60127 9.83595 8.33756C9.83595 7.98394 9.69546 7.6448 9.44541 7.39476C9.19536 7.14471 8.85622 7.00423 8.5026 7.00423Z" fill="#3BB77E"/>
</g>
</g>
</g>
</g>
<defs>
<clipPath id="clip0_6511_1915">
<rect width="16" height="17" fill="white" transform="translate(0.5 0.919922)"/>
</clipPath>
<clipPath id="clip1_6511_1915">
<rect width="16" height="17" fill="white" transform="translate(0.5 0.919922)"/>
</clipPath>
<clipPath id="clip2_6511_1915">
<rect width="16" height="17" fill="white" transform="translate(0.5 0.919922)"/>
</clipPath>
</defs>
</svg>
