<svg width="17" height="17" viewBox="0 0 17 17" fill="none" xmlns="http://www.w3.org/2000/svg">
<g clip-path="url(#clip0_6511_1944)">
<g clip-path="url(#clip1_6511_1944)">
<g clip-path="url(#clip2_6511_1944)">
<mask id="mask0_6511_1944" style="mask-type:luminance" maskUnits="userSpaceOnUse" x="1" y="1" width="16" height="16">
<path d="M16.2424 1.73828H1.18359V16.7971H16.2424V1.73828Z" fill="white"/>
</mask>
<g mask="url(#mask0_6511_1944)">
<path d="M7.4581 16.7971H1.18359V15.5422H7.4581V16.7971ZM6.2032 13.0324H1.18359V14.2873H6.2032V13.0324ZM4.9483 10.5226H1.18359V11.7775H4.9483V10.5226ZM8.71301 1.73828C6.71675 1.74044 4.80286 2.5344 3.3913 3.94598C1.97972 5.35755 1.18575 7.27143 1.18359 9.26769H2.4385C2.4385 8.02672 2.80649 6.8136 3.49595 5.78176C4.1854 4.74992 5.16534 3.94571 6.31185 3.4708C7.45837 2.9959 8.71996 2.87165 9.93714 3.11375C11.1543 3.35585 12.2723 3.95344 13.1498 4.83094C14.0273 5.70845 14.6249 6.82646 14.8669 8.0436C15.1091 9.26073 14.9848 10.5223 14.5099 11.6689C14.035 12.8153 13.2308 13.7953 12.199 14.4848C11.1671 15.1742 9.95399 15.5422 8.71301 15.5422V16.7971C10.7099 16.7971 12.625 16.0039 14.0371 14.5918C15.4491 13.1798 16.2425 11.2647 16.2425 9.26769C16.2425 7.27077 15.4491 5.35564 14.0371 3.94359C12.625 2.53155 10.7099 1.73828 8.71301 1.73828ZM8.08556 6.13044V9.52746L10.1517 11.5937L11.039 10.7064L9.34045 9.00793V6.13044H8.08556Z" fill="#3BB77E"/>
</g>
</g>
</g>
</g>
<defs>
<clipPath id="clip0_6511_1944">
<rect width="16" height="16" fill="white" transform="translate(0.5 0.919922)"/>
</clipPath>
<clipPath id="clip1_6511_1944">
<rect width="16" height="16" fill="white" transform="translate(0.5 0.919922)"/>
</clipPath>
<clipPath id="clip2_6511_1944">
<rect width="16" height="16" fill="white" transform="translate(0.5 0.919922)"/>
</clipPath>
</defs>
</svg>
